<?xml version="1.0" standalone="no"?><!DOCTYPE svg PUBLIC "-//W3C//DTD SVG 1.1//EN" "http://www.w3.org/Graphics/SVG/1.1/DTD/svg11.dtd"><svg t="1699326833714" class="icon" viewBox="0 0 1024 1024" version="1.1" xmlns="http://www.w3.org/2000/svg" p-id="4672" xmlns:xlink="http://www.w3.org/1999/xlink" width="200" height="200"><path d="M512 512m-508 0a508 508 0 1 0 1016 0 508 508 0 1 0-1016 0Z" fill="#FFD05B" p-id="4673"></path><path d="M668 256c-6.4-20.8-27.2-32-46.4-39.2-20-7.2-40.8-12.8-62.4-14.4-14.4-1.6-29.6-1.6-42.4 4.8-19.2 8.8-31.2 29.6-36 51.2-4.8 22.4-2.4 45.6 0.8 69.6 6.4 45.6 16 92.8 29.6 142.4 2.4 9.6 8 21.6 16.8 19.2 4-0.8 6.4-4.8 8.8-8 16-21.6 32-42.4 47.2-62.4 5.6-7.2 11.2-15.2 16.8-22.4 21.6-28.8 42.4-56.8 57.6-87.2 8.8-16.8 16-35.2 9.6-53.6z" fill="#2C9984" p-id="4674"></path><path d="M557.6 536c13.6 4 28.8-3.2 36.8-17.6 3.2-1.6 7.2-1.6 10.4 0.8 7.2-32 15.2-66.4 38.4-80 10.4-5.6 21.6-7.2 32.8-8 41.6-2.4 84.8 2.4 125.6 24.8 10.4 5.6 22.4 12 31.2 6.4 10.4-6.4 8-25.6 2.4-39.2-13.6-36-40-66.4-68.8-84.8-28-17.6-60-24.8-89.6-24-46.4 1.6-95.2 26.4-113.6 76-4.8 13.6-8 28.8-9.6 44.8-4.8 32-8.8 68.8 4 100.8zM445.6 513.6c-11.2-8-17.6-24.8-16-40.8-0.8-4-4-6.4-7.2-7.2 12.8-28.8 25.6-60.8 16.8-87.2-3.2-11.2-10.4-20.8-17.6-28.8-25.6-28.8-55.2-52.8-90.4-63.2-8.8-2.4-19.2-4.8-20.8-14.4-2.4-10.4 8-22.4 17.6-28.8 25.6-17.6 56-24 83.2-20s52 17.6 72.8 37.6c32.8 31.2 55.2 84.8 40 137.6-4 14.4-11.2 28-18.4 42.4-15.2 28.8-32.8 59.2-60 72.8z" fill="#4CDBC4" p-id="4675"></path><path d="M450.4 387.2c-139.2-12-244.8 64.8-236 172 4 50.4 32.8 98.4 76.8 136 13.6 12 20.8 29.6 16.8 47.2-0.8 4-2.4 7.2-4 11.2-10.4 22.4-35.2 39.2 8 81.6 22.4 8 42.4-5.6 44.8-9.6 28.8-39.2 44-61.6 125.6-51.2 139.2 17.6 244.8-64.8 236-172-8-106.4-128.8-203.2-268-215.2z" fill="#FFFFFF" p-id="4676"></path><path d="M320.8 445.6s-3.2 4-8.8 11.2c-5.6 7.2-12.8 17.6-20 31.2s-14.4 29.6-16 47.2c-0.8 8.8-0.8 18.4 1.6 27.2s5.6 17.6 11.2 25.6c2.4 4 5.6 8 8 12 3.2 3.2 6.4 7.2 9.6 10.4 4 3.2 7.2 6.4 10.4 9.6 4 3.2 7.2 5.6 11.2 8.8 4 2.4 8 4.8 11.2 8 4 2.4 8 4.8 11.2 7.2 7.2 4.8 15.2 8 21.6 12 6.4 3.2 12.8 6.4 18.4 9.6 5.6 3.2 10.4 4.8 14.4 7.2l12.8 6.4s-4.8-0.8-13.6-3.2c-4-0.8-9.6-2.4-16-4s-12.8-4-20-6.4c-7.2-3.2-15.2-5.6-23.2-9.6-4-2.4-8-4-12.8-6.4-4-2.4-8-4.8-12.8-7.2-8-5.6-16.8-11.2-24.8-19.2-4-4-7.2-8-11.2-12-3.2-4.8-7.2-8.8-9.6-13.6-6.4-9.6-9.6-20-12-31.2s-1.6-21.6-0.8-32c1.6-10.4 4.8-20 8.8-28 4-8.8 8.8-16 12.8-22.4 9.6-12.8 19.2-22.4 25.6-28 8.8-8 12.8-10.4 12.8-10.4zM642.4 580.8s1.6 4.8 2.4 14.4c0.8 9.6 0.8 23.2-3.2 38.4-2.4 8-4.8 16-9.6 24.8-4.8 8-10.4 16.8-17.6 24-7.2 7.2-15.2 14.4-24 20.8-8.8 5.6-18.4 11.2-28.8 15.2-4.8 2.4-10.4 4-15.2 5.6s-10.4 3.2-15.2 4c-4.8 1.6-10.4 2.4-15.2 3.2s-10.4 1.6-15.2 2.4c-4.8 0.8-9.6 0.8-14.4 1.6-4.8 0-9.6 0.8-14.4 0.8-8.8 0.8-17.6 0-25.6 0s-15.2-0.8-21.6-1.6c-6.4 0-12-1.6-16.8-2.4-8.8-1.6-14.4-2.4-14.4-2.4s5.6-0.8 14.4-0.8c4.8 0 10.4 0 16.8-0.8s13.6-0.8 21.6-1.6 16-1.6 24.8-2.4c4.8-0.8 8.8-0.8 13.6-1.6l14.4-2.4c9.6-1.6 19.2-4 28.8-6.4 4.8-0.8 9.6-2.4 14.4-4 4.8-1.6 9.6-3.2 14.4-5.6 9.6-4 18.4-8 26.4-13.6s16-11.2 22.4-17.6c6.4-6.4 12.8-13.6 16.8-20.8 4.8-7.2 8-14.4 11.2-21.6 5.6-14.4 8-27.2 8.8-36v-13.6z" fill="#E6E9EE" p-id="4677"></path></svg>